<?xml version="1.0" encoding="utf-8"?>
<!-- Generator: Adobe Illustrator 16.0.5, SVG Export Plug-In . SVG Version: 6.00 Build 0)  -->
<!DOCTYPE svg PUBLIC "-//W3C//DTD SVG 1.1//EN" "http://www.w3.org/Graphics/SVG/1.1/DTD/svg11.dtd">
<svg version="1.1" id="Layer_1" xmlns="http://www.w3.org/2000/svg" xmlns:xlink="http://www.w3.org/1999/xlink" x="0px" y="0px"
	 width="768px" height="82.575px" viewBox="0 0 768 82.575" enable-background="new 0 0 768 82.575" xml:space="preserve" preserveAspectRatio="none">
<linearGradient id="SVGID_1_" gradientUnits="userSpaceOnUse" x1="383.9995" y1="12.439" x2="383.9995" y2="75.7871">
	<stop  offset="0" style="stop-color:#4E2A89"/>
	<stop  offset="1" style="stop-color:#1A3773"/>
</linearGradient>
<path opacity="0.2" fill="url(#SVGID_1_)" d="M768,1H256.424L0,0v82c56,0,213.848-15.322,256.424-20.661S476.631,29.45,521.756,30
	c34.164,0.417,73.706,5.086,111.923,11.347c6.61,1.749,10.771,4.487,14.866,10.155c0.387,0.959,0.813,1.906,1.305,2.835
	c8.418,16.444,31.608,22.628,46.654,13.16c4.186-1.287,8.012-1.219,12.491,2.782c2.655,3.572,6.234,6.43,10.695,8.041
	c7.944,2.05,15.822-0.451,21.943-5.46c5.056-3.316,10.832-6.173,17.766-5.335c3.025,0.759,5.903,1.49,8.601,2.186V1z"/>
<g>
	<g>
		<linearGradient id="SVGID_2_" gradientUnits="userSpaceOnUse" x1="384.0005" y1="70.4146" x2="384.0005" y2="7.3505">
			<stop  offset="0" style="stop-color:#4E2A89"/>
			<stop  offset="1" style="stop-color:#1A3773"/>
		</linearGradient>
		<path fill="url(#SVGID_2_)" d="M256.424,0H768v63.711C716.746,50.492,663.178,25,523.756,25S302.514,47.344,256.424,55.339
			S45,72,0,72V0H256.424z"/>
	</g>
</g>
<g>
</g>
<g>
</g>
<g>
</g>
<g>
</g>
<g>
</g>
<g>
</g>
<g>
</g>
<g>
</g>
<g>
</g>
<g>
</g>
<g>
</g>
<g>
</g>
<g>
</g>
<g>
</g>
<g>
</g>
</svg>
