<?xml version="1.0" encoding="utf-8"?>
<!-- Generator: Adobe Illustrator 16.0.5, SVG Export Plug-In . SVG Version: 6.00 Build 0)  -->
<!DOCTYPE svg PUBLIC "-//W3C//DTD SVG 1.1//EN" "http://www.w3.org/Graphics/SVG/1.1/DTD/svg11.dtd">
<svg version="1.1" id="Layer_1" xmlns="http://www.w3.org/2000/svg" xmlns:xlink="http://www.w3.org/1999/xlink" x="0px" y="0px"
	 width="514.839px" height="76.839px" viewBox="0 0 514.839 76.839" enable-background="new 0 0 514.839 76.839"
	 xml:space="preserve">
<g>
	<polygon fill="#EE407F" points="60.879,14.197 21.012,5.162 0,38.195 22.184,61.729 22.13,61.749 23.45,63.071 26.536,66.346 
		26.663,66.289 36.317,75.959 35.001,62.627 60.907,51.254 	"/>
	<polygon opacity="0.7" fill="#FFFFFF" points="49.98,0 22.222,35.432 27.454,44.661 85.803,36.656 	"/>
</g>
<g>
	<path fill="#662F90" d="M74.225,17.022h29.527l-0.056,8.227H84.537v8.791h17.694v8.227H84.537v14.257H74.225V17.022z"/>
	<path fill="#662F90" d="M120.262,46.212c1.465,1.503,3.325,2.254,5.579,2.254c2.216,0,4.01-0.742,5.381-2.227
		c1.371-1.483,2.057-3.483,2.057-6.001V17.022h10.312v23.216c0,3.419-0.724,6.415-2.169,8.988c-1.446,2.573-3.513,4.555-6.198,5.944
		c-2.687,1.39-5.832,2.085-9.438,2.085s-6.771-0.695-9.495-2.085c-2.724-1.39-4.828-3.371-6.311-5.944
		c-1.484-2.573-2.226-5.569-2.226-8.988V17.022h10.312v23.216C118.064,42.718,118.797,44.709,120.262,46.212z"/>
	<path fill="#662F90" d="M147.197,17.022h33.866v8.509H169.23v30.992h-10.312V25.531h-11.721V17.022z"/>
	<path fill="#662F90" d="M197.066,46.212c1.465,1.503,3.325,2.254,5.579,2.254c2.216,0,4.01-0.742,5.381-2.227
		c1.371-1.483,2.057-3.483,2.057-6.001V17.022h10.312v23.216c0,3.419-0.724,6.415-2.169,8.988c-1.446,2.573-3.513,4.555-6.198,5.944
		c-2.687,1.39-5.832,2.085-9.438,2.085s-6.771-0.695-9.495-2.085c-2.724-1.39-4.828-3.371-6.311-5.944
		c-1.484-2.573-2.226-5.569-2.226-8.988V17.022h10.312v23.216C194.869,42.718,195.602,44.709,197.066,46.212z"/>
	<path fill="#662F90" d="M251.161,56.523l-5.748-10.932h-0.225h-7.438v10.932h-10.312V17.022h17.75c5.221,0,9.27,1.212,12.143,3.635
		c2.874,2.423,4.311,5.832,4.311,10.228c0,2.968-0.602,5.531-1.803,7.691c-1.203,2.16-2.95,3.842-5.241,5.043l8.227,12.904H251.161z
		 M237.75,37.364h7.495c2.104,0,3.728-0.525,4.874-1.577c1.146-1.052,1.719-2.573,1.719-4.564c0-1.916-0.573-3.39-1.719-4.424
		c-1.146-1.032-2.771-1.55-4.874-1.55h-7.495V37.364z"/>
	<path fill="#662F90" d="M268.235,17.022h10.312v39.501h-10.312V17.022z"/>
	<path fill="#662F90" d="M298.043,46.212c1.465,1.503,3.325,2.254,5.579,2.254c2.216,0,4.009-0.742,5.381-2.227
		c1.371-1.483,2.057-3.483,2.057-6.001V17.022h10.313v23.216c0,3.419-0.724,6.415-2.17,8.988s-3.513,4.555-6.198,5.944
		c-2.687,1.39-5.832,2.085-9.438,2.085s-6.771-0.695-9.495-2.085s-4.827-3.371-6.311-5.944c-1.485-2.573-2.227-5.569-2.227-8.988
		V17.022h10.313v23.216C295.846,42.718,296.578,44.709,298.043,46.212z"/>
	<path fill="#662F90" d="M328.416,17.022h11.213l11.439,23.104l11.383-23.104h11.213v39.501h-9.128l-0.057-25.02l-10.087,21.075
		h-6.649l-10.143-21.075v25.02h-9.185V17.022z"/>
	<path fill="#EE407F" d="M381.327,17.022h10.312v30.711h16.736v8.79h-27.048V17.022z"/>
	<path fill="#EE407F" d="M442.239,56.523l-2.705-6.987h-17.073l-2.762,6.987h-10.594l16.962-39.501h10.594l16.566,39.501H442.239z
		 M425.56,41.647h10.933l-5.41-14.088L425.56,41.647z"/>
	<path fill="#EE407F" d="M483.29,18.234c2.198,0.808,3.897,1.963,5.1,3.465c1.202,1.503,1.804,3.269,1.804,5.297
		c0,2.066-0.611,3.87-1.831,5.41c-1.222,1.54-2.884,2.592-4.987,3.155c2.517,0.488,4.498,1.634,5.945,3.438
		c1.445,1.803,2.169,3.982,2.169,6.536c0,2.217-0.62,4.161-1.859,5.832c-1.24,1.672-3.006,2.95-5.297,3.832
		c-2.292,0.883-4.979,1.324-8.058,1.324h-19.497V17.022h18.764C478.51,17.022,481.093,17.427,483.29,18.234z M478.36,31.701
		c0.825-0.694,1.239-1.662,1.239-2.901c0-1.202-0.414-2.132-1.239-2.79c-0.827-0.656-1.954-0.967-3.382-0.93h-7.889v7.664h7.889
		C476.406,32.744,477.533,32.397,478.36,31.701z M479.262,47.395c1.051-0.751,1.577-1.803,1.577-3.155
		c0-1.239-0.526-2.226-1.577-2.958c-1.053-0.732-2.479-1.08-4.283-1.043h-7.889v8.283h7.889
		C476.782,48.521,478.209,48.146,479.262,47.395z"/>
</g>
<polygon fill="#662F90" points="497.669,49.516 506.999,45.576 514.471,51.936 510.603,63.441 498.678,61.642 "/>
</svg>
